<mxfile host="app.diagrams.net" modified="2023-12-28T14:17:05.446Z" agent="Mozilla/5.0 (Windows NT 10.0; Win64; x64) AppleWebKit/537.36 (KHTML, like Gecko) Chrome/120.0.0.0 Safari/537.36 Edg/120.0.0.0" etag="6S6FE3jktyrJeKCmAomq" version="22.1.15" type="github">
  <diagram name="第 1 页" id="eC56RGv5QEwMGRQuLE_x">
    <mxGraphModel dx="1282" dy="535" grid="1" gridSize="10" guides="1" tooltips="1" connect="1" arrows="1" fold="1" page="1" pageScale="1" pageWidth="827" pageHeight="1169" math="0" shadow="0">
      <root>
        <mxCell id="0" />
        <mxCell id="1" parent="0" />
        <mxCell id="omiulICMb4twW_-FBBzJ-1" value="&lt;p style=&quot;margin: 4px 0px 0px; text-align: center; font-size: 10px;&quot;&gt;&lt;font style=&quot;font-size: 10px;&quot;&gt;Person&lt;/font&gt;&lt;/p&gt;&lt;hr style=&quot;font-size: 10px;&quot;&gt;&lt;p style=&quot;margin: 0px 0px 0px 4px; font-size: 10px;&quot;&gt;&lt;font style=&quot;font-size: 10px;&quot;&gt;+ loginID : String&lt;br style=&quot;font-size: 10px;&quot;&gt;+ password : String&lt;/font&gt;&lt;/p&gt;&lt;p style=&quot;margin: 0px 0px 0px 4px; font-size: 10px;&quot;&gt;&lt;font style=&quot;font-size: 10px;&quot;&gt;+ email : String&lt;/font&gt;&lt;/p&gt;&lt;hr style=&quot;font-size: 10px;&quot;&gt;&lt;p style=&quot;margin: 0px 0px 0px 4px; font-size: 10px;&quot;&gt;&lt;font style=&quot;font-size: 10px;&quot;&gt;+ getID()&lt;br style=&quot;font-size: 10px;&quot;&gt;+ getPassword()&lt;/font&gt;&lt;/p&gt;&lt;p style=&quot;margin: 0px 0px 0px 4px; font-size: 10px;&quot;&gt;&lt;font style=&quot;font-size: 10px;&quot;&gt;+ getEmail()&lt;/font&gt;&lt;/p&gt;" style="verticalAlign=top;align=left;overflow=fill;fontSize=10;fontFamily=Helvetica;html=1;whiteSpace=wrap;fillColor=#f9ffa8;strokeColor=#36393d;" parent="1" vertex="1">
          <mxGeometry x="320" y="20" width="180" height="120" as="geometry" />
        </mxCell>
        <mxCell id="omiulICMb4twW_-FBBzJ-13" value="&lt;p style=&quot;text-align: center; margin: 4px 0px 0px; font-size: 9px;&quot;&gt;&lt;font style=&quot;font-size: 11px;&quot;&gt;訂單&lt;/font&gt;&lt;/p&gt;&lt;hr style=&quot;text-align: center; font-size: 9px;&quot;&gt;&lt;p style=&quot;margin: 0px 0px 0px 4px; font-size: 9px;&quot;&gt;+ shopname : String&lt;br style=&quot;border-color: var(--border-color); font-size: 9px;&quot;&gt;+ foodname : String&lt;br style=&quot;border-color: var(--border-color); font-size: 9px;&quot;&gt;+ count : Integer&lt;br style=&quot;border-color: var(--border-color); font-size: 9px;&quot;&gt;+ sumprice : Double&lt;br style=&quot;border-color: var(--border-color); font-size: 9px;&quot;&gt;+ username : String&lt;br style=&quot;border-color: var(--border-color); font-size: 9px;&quot;&gt;+ useraddress : String&lt;br style=&quot;border-color: var(--border-color); font-size: 9px;&quot;&gt;+ userphone : String&amp;nbsp;&lt;br style=&quot;font-size: 9px;&quot;&gt;&lt;/p&gt;&lt;hr style=&quot;font-size: 9px;&quot;&gt;&lt;p style=&quot;margin: 0px 0px 0px 4px; font-size: 9px;&quot;&gt;&lt;br style=&quot;font-size: 9px;&quot;&gt;&lt;/p&gt;" style="verticalAlign=top;align=left;overflow=fill;fontSize=9;fontFamily=Helvetica;html=1;whiteSpace=wrap;fillColor=#ffff88;strokeColor=#36393d;" parent="1" vertex="1">
          <mxGeometry x="104" y="435" width="186" height="160" as="geometry" />
        </mxCell>
        <mxCell id="omiulICMb4twW_-FBBzJ-14" value="&lt;p style=&quot;text-align: center; margin: 4px 0px 0px; font-size: 11px;&quot;&gt;餐飲&lt;/p&gt;&lt;hr style=&quot;text-align: center; font-size: 11px;&quot;&gt;&lt;p style=&quot;margin: 0px 0px 0px 4px; font-size: 11px;&quot;&gt;+ foodname : String&lt;br style=&quot;border-color: var(--border-color); font-size: 11px;&quot;&gt;+ foodpicture : Object&lt;br style=&quot;border-color: var(--border-color); font-size: 11px;&quot;&gt;+ price : Double&lt;br style=&quot;border-color: var(--border-color); font-size: 11px;&quot;&gt;+ note : String&lt;br style=&quot;font-size: 11px;&quot;&gt;&lt;/p&gt;&lt;hr style=&quot;font-size: 11px;&quot;&gt;&lt;p style=&quot;margin: 0px 0px 0px 4px; font-size: 11px;&quot;&gt;&lt;br style=&quot;font-size: 11px;&quot;&gt;&lt;/p&gt;" style="verticalAlign=top;align=left;overflow=fill;fontSize=11;fontFamily=Helvetica;html=1;whiteSpace=wrap;fillColor=#ffff88;strokeColor=#36393d;" parent="1" vertex="1">
          <mxGeometry x="329" y="457.5" width="170" height="115" as="geometry" />
        </mxCell>
        <mxCell id="omiulICMb4twW_-FBBzJ-15" value="&lt;p style=&quot;text-align: center; margin: 4px 0px 0px; font-size: 11px;&quot;&gt;店鋪&lt;/p&gt;&lt;hr style=&quot;text-align: center; font-size: 11px;&quot;&gt;&lt;p style=&quot;margin: 0px 0px 0px 4px; font-size: 11px;&quot;&gt;+ shopname : String&lt;br style=&quot;border-color: var(--border-color); font-size: 11px;&quot;&gt;+ shopaddress : String&lt;br style=&quot;border-color: var(--border-color); font-size: 11px;&quot;&gt;+ phone : String&lt;br style=&quot;border-color: var(--border-color); font-size: 11px;&quot;&gt;+ description : String&lt;br style=&quot;font-size: 11px;&quot;&gt;&lt;/p&gt;&lt;hr style=&quot;font-size: 11px;&quot;&gt;&lt;p style=&quot;margin: 0px 0px 0px 4px; font-size: 11px;&quot;&gt;&lt;br style=&quot;font-size: 11px;&quot;&gt;&lt;/p&gt;" style="verticalAlign=top;align=left;overflow=fill;fontSize=11;fontFamily=Helvetica;html=1;whiteSpace=wrap;fillColor=#ffff88;strokeColor=#36393d;" parent="1" vertex="1">
          <mxGeometry x="570" y="457.5" width="170" height="115" as="geometry" />
        </mxCell>
        <mxCell id="omiulICMb4twW_-FBBzJ-16" value="&lt;font style=&quot;font-size: 10px;&quot;&gt;訂單管理員&lt;/font&gt;" style="shape=umlActor;verticalLabelPosition=bottom;verticalAlign=top;html=1;strokeColor=#ff6b6b;direction=east;" parent="1" vertex="1">
          <mxGeometry x="80" y="230" width="30" height="60" as="geometry" />
        </mxCell>
        <mxCell id="omiulICMb4twW_-FBBzJ-17" value="&lt;font style=&quot;font-size: 9px;&quot;&gt;訂餐者&lt;/font&gt;" style="shape=umlActor;verticalLabelPosition=bottom;verticalAlign=top;html=1;strokeColor=#ff6b6b;" parent="1" vertex="1">
          <mxGeometry x="230" y="230" width="30" height="60" as="geometry" />
        </mxCell>
        <mxCell id="omiulICMb4twW_-FBBzJ-18" value="&lt;font style=&quot;font-size: 9px;&quot;&gt;系統管理員&lt;/font&gt;" style="shape=umlActor;verticalLabelPosition=bottom;verticalAlign=top;html=1;strokeColor=#ff6b6b;" parent="1" vertex="1">
          <mxGeometry x="399" y="230" width="30" height="60" as="geometry" />
        </mxCell>
        <mxCell id="omiulICMb4twW_-FBBzJ-19" value="&lt;font style=&quot;font-size: 9px;&quot;&gt;商家&lt;/font&gt;" style="shape=umlActor;verticalLabelPosition=bottom;verticalAlign=top;html=1;strokeColor=#ff6b6b;" parent="1" vertex="1">
          <mxGeometry x="570" y="230" width="30" height="60" as="geometry" />
        </mxCell>
        <mxCell id="omiulICMb4twW_-FBBzJ-20" value="&lt;font style=&quot;font-size: 9px;&quot;&gt;店鋪管理員&lt;/font&gt;" style="shape=umlActor;verticalLabelPosition=bottom;verticalAlign=top;html=1;strokeColor=#ff6b6b;" parent="1" vertex="1">
          <mxGeometry x="710" y="230" width="30" height="60" as="geometry" />
        </mxCell>
        <mxCell id="omiulICMb4twW_-FBBzJ-21" value="" style="endArrow=block;endFill=0;endSize=12;html=1;rounded=0;entryX=0;entryY=0.75;entryDx=0;entryDy=0;strokeColor=#f55656;" parent="1" target="omiulICMb4twW_-FBBzJ-1" edge="1">
          <mxGeometry width="160" relative="1" as="geometry">
            <mxPoint x="120" y="240" as="sourcePoint" />
            <mxPoint x="270" y="220" as="targetPoint" />
          </mxGeometry>
        </mxCell>
        <mxCell id="omiulICMb4twW_-FBBzJ-22" value="" style="shape=partialRectangle;whiteSpace=wrap;html=1;left=0;right=0;fillColor=none;strokeColor=#fb5050;" parent="1" vertex="1">
          <mxGeometry x="35" y="330" width="120" height="8" as="geometry" />
        </mxCell>
        <mxCell id="omiulICMb4twW_-FBBzJ-23" value="(from Use Case)" style="text;html=1;align=center;verticalAlign=middle;resizable=0;points=[];autosize=1;strokeColor=none;fillColor=none;fontSize=9;" parent="1" vertex="1">
          <mxGeometry x="50" y="313" width="90" height="20" as="geometry" />
        </mxCell>
        <mxCell id="omiulICMb4twW_-FBBzJ-24" value="&lt;font style=&quot;font-size: 9px;&quot;&gt;+ manageOrder()&lt;/font&gt;" style="text;html=1;align=center;verticalAlign=middle;resizable=0;points=[];autosize=1;strokeColor=none;fillColor=none;" parent="1" vertex="1">
          <mxGeometry x="50" y="328" width="90" height="30" as="geometry" />
        </mxCell>
        <mxCell id="omiulICMb4twW_-FBBzJ-25" value="&lt;font style=&quot;font-size: 9px;&quot;&gt;生成、修改、查詢、刪除&lt;/font&gt;" style="text;html=1;align=center;verticalAlign=middle;resizable=0;points=[];autosize=1;strokeColor=none;fillColor=none;" parent="1" vertex="1">
          <mxGeometry x="35" y="338" width="120" height="30" as="geometry" />
        </mxCell>
        <mxCell id="omiulICMb4twW_-FBBzJ-26" value="&lt;font style=&quot;font-size: 9px;&quot;&gt;+phone : String&lt;br&gt;+address : String&lt;br&gt;+username : String&lt;/font&gt;" style="shape=partialRectangle;whiteSpace=wrap;html=1;left=0;right=0;fillColor=none;strokeColor=#fb5050;" parent="1" vertex="1">
          <mxGeometry x="185" y="323" width="120" height="44" as="geometry" />
        </mxCell>
        <mxCell id="omiulICMb4twW_-FBBzJ-27" value="" style="shape=partialRectangle;whiteSpace=wrap;html=1;left=0;right=0;fillColor=none;strokeColor=#fb5050;" parent="1" vertex="1">
          <mxGeometry x="354" y="320" width="120" height="8" as="geometry" />
        </mxCell>
        <mxCell id="omiulICMb4twW_-FBBzJ-29" value="&lt;font style=&quot;font-size: 9px;&quot;&gt;(from Use Case)&lt;/font&gt;" style="text;html=1;align=center;verticalAlign=middle;resizable=0;points=[];autosize=1;strokeColor=none;fillColor=none;" parent="1" vertex="1">
          <mxGeometry x="200" y="300" width="90" height="30" as="geometry" />
        </mxCell>
        <mxCell id="omiulICMb4twW_-FBBzJ-30" value="&lt;font style=&quot;font-size: 9px;&quot;&gt;+getPhone()&lt;br&gt;+getUsername()&lt;br&gt;+getAddress()&lt;/font&gt;" style="text;html=1;align=center;verticalAlign=middle;resizable=0;points=[];autosize=1;strokeColor=none;fillColor=none;" parent="1" vertex="1">
          <mxGeometry x="200" y="358" width="90" height="60" as="geometry" />
        </mxCell>
        <mxCell id="omiulICMb4twW_-FBBzJ-32" value="&lt;font style=&quot;font-size: 9px;&quot;&gt;(from Use Case)&lt;/font&gt;" style="text;html=1;align=center;verticalAlign=middle;resizable=0;points=[];autosize=1;strokeColor=none;fillColor=none;" parent="1" vertex="1">
          <mxGeometry x="369" y="298" width="90" height="30" as="geometry" />
        </mxCell>
        <mxCell id="omiulICMb4twW_-FBBzJ-33" value="&lt;font style=&quot;font-size: 9px;&quot;&gt;+manageUser()&lt;br&gt;+manageShopManager()&lt;/font&gt;" style="text;html=1;align=center;verticalAlign=middle;resizable=0;points=[];autosize=1;strokeColor=none;fillColor=none;" parent="1" vertex="1">
          <mxGeometry x="354" y="323" width="120" height="40" as="geometry" />
        </mxCell>
        <mxCell id="omiulICMb4twW_-FBBzJ-34" value="&lt;font style=&quot;font-size: 9px;&quot;&gt;+phone : String&lt;br&gt;+shopname : String&lt;br&gt;&lt;/font&gt;" style="shape=partialRectangle;whiteSpace=wrap;html=1;left=0;right=0;fillColor=none;strokeColor=#fb5050;" parent="1" vertex="1">
          <mxGeometry x="525" y="320" width="120" height="28" as="geometry" />
        </mxCell>
        <mxCell id="omiulICMb4twW_-FBBzJ-35" value="&lt;font style=&quot;font-size: 9px;&quot;&gt;+getPhone()&lt;br&gt;+AtShopName()&lt;/font&gt;" style="text;html=1;align=center;verticalAlign=middle;resizable=0;points=[];autosize=1;strokeColor=none;fillColor=none;" parent="1" vertex="1">
          <mxGeometry x="540" y="348" width="90" height="40" as="geometry" />
        </mxCell>
        <mxCell id="omiulICMb4twW_-FBBzJ-36" value="&lt;font style=&quot;font-size: 9px;&quot;&gt;(from Use Case)&lt;/font&gt;" style="text;html=1;align=center;verticalAlign=middle;resizable=0;points=[];autosize=1;strokeColor=none;fillColor=none;" parent="1" vertex="1">
          <mxGeometry x="540" y="298" width="90" height="30" as="geometry" />
        </mxCell>
        <mxCell id="omiulICMb4twW_-FBBzJ-37" value="&lt;font style=&quot;font-size: 9px;&quot;&gt;(from Use Case)&lt;/font&gt;" style="text;html=1;align=center;verticalAlign=middle;resizable=0;points=[];autosize=1;strokeColor=none;fillColor=none;" parent="1" vertex="1">
          <mxGeometry x="680" y="298" width="90" height="30" as="geometry" />
        </mxCell>
        <mxCell id="omiulICMb4twW_-FBBzJ-38" value="" style="shape=partialRectangle;whiteSpace=wrap;html=1;left=0;right=0;fillColor=none;strokeColor=#fb5050;" parent="1" vertex="1">
          <mxGeometry x="665" y="320" width="120" height="8" as="geometry" />
        </mxCell>
        <mxCell id="omiulICMb4twW_-FBBzJ-39" value="&lt;font style=&quot;font-size: 8px;&quot;&gt;+ manageShop()&lt;br&gt;管理店鋪信息、建立檔案&lt;br&gt;&lt;/font&gt;" style="text;html=1;align=center;verticalAlign=middle;resizable=0;points=[];autosize=1;strokeColor=none;fillColor=none;" parent="1" vertex="1">
          <mxGeometry x="670" y="320" width="110" height="40" as="geometry" />
        </mxCell>
        <mxCell id="omiulICMb4twW_-FBBzJ-40" value="" style="endArrow=block;endFill=0;endSize=12;html=1;rounded=0;entryX=-0.009;entryY=0.906;entryDx=0;entryDy=0;entryPerimeter=0;strokeColor=#f55656;" parent="1" target="omiulICMb4twW_-FBBzJ-1" edge="1">
          <mxGeometry width="160" relative="1" as="geometry">
            <mxPoint x="260" y="238" as="sourcePoint" />
            <mxPoint x="447" y="90" as="targetPoint" />
          </mxGeometry>
        </mxCell>
        <mxCell id="omiulICMb4twW_-FBBzJ-41" value="" style="endArrow=block;endFill=0;endSize=12;html=1;rounded=0;strokeColor=#f55656;" parent="1" edge="1">
          <mxGeometry width="160" relative="1" as="geometry">
            <mxPoint x="413" y="230" as="sourcePoint" />
            <mxPoint x="413" y="140" as="targetPoint" />
          </mxGeometry>
        </mxCell>
        <mxCell id="omiulICMb4twW_-FBBzJ-42" value="" style="endArrow=block;endFill=0;endSize=12;html=1;rounded=0;strokeColor=#f55656;entryX=1.005;entryY=0.858;entryDx=0;entryDy=0;entryPerimeter=0;" parent="1" target="omiulICMb4twW_-FBBzJ-1" edge="1">
          <mxGeometry width="160" relative="1" as="geometry">
            <mxPoint x="569.1700000000001" y="240" as="sourcePoint" />
            <mxPoint x="500" y="130" as="targetPoint" />
          </mxGeometry>
        </mxCell>
        <mxCell id="omiulICMb4twW_-FBBzJ-43" value="" style="endArrow=block;endFill=0;endSize=12;html=1;rounded=0;strokeColor=#f55656;entryX=1;entryY=0.75;entryDx=0;entryDy=0;" parent="1" target="omiulICMb4twW_-FBBzJ-1" edge="1">
          <mxGeometry width="160" relative="1" as="geometry">
            <mxPoint x="710" y="220" as="sourcePoint" />
            <mxPoint x="433" y="160" as="targetPoint" />
          </mxGeometry>
        </mxCell>
        <mxCell id="omiulICMb4twW_-FBBzJ-44" value="" style="endArrow=open;endFill=0;endSize=7;html=1;rounded=0;strokeColor=#f55656;strokeWidth=1;" parent="1" edge="1">
          <mxGeometry width="160" relative="1" as="geometry">
            <mxPoint x="390" y="250" as="sourcePoint" />
            <mxPoint x="270" y="250" as="targetPoint" />
          </mxGeometry>
        </mxCell>
        <mxCell id="omiulICMb4twW_-FBBzJ-45" value="&lt;font style=&quot;font-size: 9px;&quot;&gt;增加、修改、刪除&lt;/font&gt;" style="text;html=1;align=center;verticalAlign=middle;resizable=0;points=[];autosize=1;strokeColor=none;fillColor=none;" parent="1" vertex="1">
          <mxGeometry x="280" y="230" width="100" height="30" as="geometry" />
        </mxCell>
        <mxCell id="omiulICMb4twW_-FBBzJ-46" value="" style="endArrow=open;endFill=0;endSize=7;html=1;rounded=0;strokeColor=#f55656;" parent="1" edge="1">
          <mxGeometry width="160" relative="1" as="geometry">
            <mxPoint x="440" y="251" as="sourcePoint" />
            <mxPoint x="560" y="250" as="targetPoint" />
          </mxGeometry>
        </mxCell>
        <mxCell id="omiulICMb4twW_-FBBzJ-47" value="&lt;font style=&quot;font-size: 9px;&quot;&gt;錄入、修改、刪除&lt;/font&gt;" style="text;html=1;align=center;verticalAlign=middle;resizable=0;points=[];autosize=1;strokeColor=none;fillColor=none;" parent="1" vertex="1">
          <mxGeometry x="450" y="230" width="100" height="30" as="geometry" />
        </mxCell>
        <mxCell id="omiulICMb4twW_-FBBzJ-48" value="" style="endArrow=openThin;endFill=0;endSize=7;html=1;rounded=0;strokeColor=#f55656;exitX=1;exitY=0.5;exitDx=0;exitDy=0;entryX=0;entryY=0.5;entryDx=0;entryDy=0;dashed=1;" parent="1" source="omiulICMb4twW_-FBBzJ-14" target="omiulICMb4twW_-FBBzJ-15" edge="1">
          <mxGeometry width="160" relative="1" as="geometry">
            <mxPoint x="510" y="525" as="sourcePoint" />
            <mxPoint x="510" y="435" as="targetPoint" />
          </mxGeometry>
        </mxCell>
        <mxCell id="omiulICMb4twW_-FBBzJ-50" value="" style="endArrow=openThin;endFill=0;endSize=7;html=1;rounded=0;strokeColor=#f55656;exitX=0.83;exitY=-0.042;exitDx=0;exitDy=0;entryX=0.25;entryY=0;entryDx=0;entryDy=0;dashed=1;exitPerimeter=0;" parent="1" source="omiulICMb4twW_-FBBzJ-23" target="omiulICMb4twW_-FBBzJ-13" edge="1">
          <mxGeometry width="160" relative="1" as="geometry">
            <mxPoint x="390" y="410" as="sourcePoint" />
            <mxPoint x="461" y="410" as="targetPoint" />
          </mxGeometry>
        </mxCell>
        <mxCell id="omiulICMb4twW_-FBBzJ-51" value="" style="endArrow=openThin;endFill=0;endSize=7;html=1;rounded=0;strokeColor=#f55656;exitX=0.519;exitY=0.072;exitDx=0;exitDy=0;entryX=0.75;entryY=0;entryDx=0;entryDy=0;dashed=1;exitPerimeter=0;" parent="1" source="omiulICMb4twW_-FBBzJ-29" target="omiulICMb4twW_-FBBzJ-13" edge="1">
          <mxGeometry width="160" relative="1" as="geometry">
            <mxPoint x="400" y="420" as="sourcePoint" />
            <mxPoint x="471" y="420" as="targetPoint" />
          </mxGeometry>
        </mxCell>
        <mxCell id="omiulICMb4twW_-FBBzJ-52" value="" style="endArrow=openThin;endFill=0;endSize=7;html=1;rounded=0;strokeColor=#f55656;entryX=0.376;entryY=-0.017;entryDx=0;entryDy=0;dashed=1;entryPerimeter=0;" parent="1" source="omiulICMb4twW_-FBBzJ-36" target="omiulICMb4twW_-FBBzJ-15" edge="1">
          <mxGeometry width="160" relative="1" as="geometry">
            <mxPoint x="410" y="430" as="sourcePoint" />
            <mxPoint x="481" y="430" as="targetPoint" />
          </mxGeometry>
        </mxCell>
        <mxCell id="omiulICMb4twW_-FBBzJ-53" value="" style="endArrow=openThin;endFill=0;endSize=7;html=1;rounded=0;strokeColor=#f55656;exitX=0.444;exitY=0.4;exitDx=0;exitDy=0;entryX=0.592;entryY=0.006;entryDx=0;entryDy=0;dashed=1;exitPerimeter=0;entryPerimeter=0;" parent="1" source="omiulICMb4twW_-FBBzJ-37" target="omiulICMb4twW_-FBBzJ-15" edge="1">
          <mxGeometry width="160" relative="1" as="geometry">
            <mxPoint x="420" y="440" as="sourcePoint" />
            <mxPoint x="491" y="440" as="targetPoint" />
          </mxGeometry>
        </mxCell>
      </root>
    </mxGraphModel>
  </diagram>
</mxfile>
